<svg preserveAspectRatio="none" overflow="visible" style="display: block;" width="79.4718" height="11.6793" viewBox="0 0 79.4718 11.6793" fill="none" xmlns="http://www.w3.org/2000/svg">
<g id="Group">
<path id="Vector" d="M76.7383 1.90722H76.3997V0.294519H75.8152V0H77.3233V0.294519H76.7383V1.90722Z" fill="#747881"/>
<path id="Vector_2" d="M79.4718 1.90722H79.1332V0.491819L78.5397 1.90722H78.3952L77.8047 0.491819V1.90722H77.466V0H77.9436L78.4674 1.25528L78.9942 0H79.4718V1.90722Z" fill="#747881"/>
<path id="Vector_3" d="M67.7842 7.64284C66.681 7.64284 65.5717 7.64856 64.4685 7.63712C64.2342 7.63712 64.1314 7.68859 64.2001 7.94586C64.5488 9.25497 65.5431 10.4211 66.9669 10.627C68.0877 10.787 69.3791 10.1525 69.8767 9.12919C69.968 8.94056 70.0654 8.88908 70.248 8.95766C70.2766 8.9691 70.2997 8.97482 70.3283 8.98626C70.9739 9.15207 70.9855 9.15779 70.6544 9.75801C70.094 10.7756 69.1794 11.2843 68.0817 11.5302C66.3037 11.9247 64.7144 10.9699 63.8856 9.68371C62.5822 7.67143 63.1135 5.26468 64.4229 3.86413C65.9781 2.20057 68.756 2.31491 70.2826 4.08707C71.1114 5.0475 71.4199 6.17936 71.4029 7.42561C71.3974 7.66571 71.2544 7.64856 71.0999 7.64856C69.9966 7.63712 68.8879 7.64284 67.7842 7.64284ZM67.2469 6.65386C68.173 6.65386 69.0936 6.65386 70.0197 6.65386C70.3799 6.65386 70.414 6.62526 70.2997 6.27654C70.1737 5.89927 70.0423 5.51628 69.8481 5.17322C69.219 4.06422 67.8986 3.46967 66.6584 3.69262C65.4749 3.90986 64.463 4.99603 64.1886 6.33945C64.1369 6.58528 64.2001 6.6653 64.4459 6.65958C65.3776 6.64814 66.3147 6.65386 67.2469 6.65386Z" fill="#747881"/>
<path id="Vector_4" d="M47.2954 11.4429C46.701 11.5058 46.5579 11.42 46.0434 10.6826C45.9861 10.7112 45.9234 10.7283 45.8721 10.7684C45.0715 11.3514 44.1512 11.6087 43.1909 11.6259C41.2586 11.6544 39.9152 10.2367 40.1783 8.41305C40.2867 7.65274 40.7556 7.14398 41.3957 6.7781C42.1447 6.35508 42.968 6.20071 43.8195 6.24646C44.4826 6.28649 45.1402 6.37795 45.7974 6.46941C46.0434 6.50368 46.1522 6.44653 46.1121 6.20071C46.0549 5.80628 46.0378 5.39469 45.9063 5.02881C45.5002 3.92549 44.3284 3.37669 43.1392 3.75971C42.5679 3.94263 42.0418 4.26848 41.4986 4.53715C41.3901 4.58861 41.2928 4.66867 41.1672 4.75442C40.9725 4.50286 40.7898 4.26276 40.5784 3.98267C40.8414 3.81115 41.0754 3.63965 41.3214 3.49102C42.093 3.03368 42.8937 2.69068 43.8195 2.6964C45.7406 2.70212 47.0268 3.94835 47.0554 5.8863C47.078 7.24116 47.0609 8.5903 47.0609 9.94516C47.0609 10.1624 46.9866 10.4082 47.2552 10.5511C47.2898 10.5683 47.2898 10.654 47.2898 10.7112C47.2954 10.9513 47.2954 11.1914 47.2954 11.4429ZM46.1121 8.41305C46.1121 8.20726 46.1006 8.0701 46.1121 7.93861C46.1463 7.64131 46.0148 7.49837 45.729 7.45839C45.1402 7.37265 44.5513 7.24116 43.9569 7.20112C43.2592 7.15542 42.5679 7.25832 41.9333 7.58416C41.4072 7.85854 41.0814 8.27584 41.0985 8.90471C41.1215 9.72221 41.7787 10.4482 42.6533 10.5969C43.4595 10.734 44.2255 10.5625 44.9459 10.1967C45.7005 9.81934 46.2436 9.28775 46.1121 8.41305Z" fill="#747881"/>
<path id="Vector_5" d="M48.1855 9.99639C48.3627 9.84202 48.5283 9.69913 48.6829 9.55048C48.8256 9.41327 48.94 9.4076 49.0886 9.55048C49.6202 10.0592 50.2434 10.4308 50.9694 10.5738C51.8213 10.7453 52.639 10.6538 53.3991 10.2079C53.8676 9.93347 54.1024 9.51045 54.0508 8.96737C53.9991 8.42429 53.6735 8.05269 53.1758 7.90404C52.7072 7.76116 52.2101 7.72117 51.7239 7.64682C51.1696 7.56109 50.5976 7.54965 50.066 7.40105C49.0258 7.10947 48.4425 6.332 48.4199 5.18865C48.4028 4.23397 48.8542 3.50223 49.7402 3.09063C50.8033 2.59328 51.9186 2.5647 53.0273 2.90198C53.7477 3.11921 54.2279 3.64515 54.6167 4.32544C54.3367 4.44547 54.0733 4.56554 53.8049 4.67414C53.7648 4.6913 53.6675 4.65129 53.6449 4.61128C53.3188 3.89668 52.6786 3.74805 51.9928 3.67373C51.3868 3.61085 50.7923 3.67373 50.2319 3.93098C49.7116 4.17107 49.3918 4.56554 49.3918 5.14866C49.3918 5.76032 49.689 6.22338 50.2665 6.42917C50.6378 6.56067 51.0436 6.59493 51.4324 6.65784C52.0671 6.75502 52.7243 6.7779 53.3419 6.94371C54.2735 7.18948 54.8971 7.80691 55 8.80161C55.1138 9.87061 54.6739 10.6881 53.7076 11.1683C51.8729 12.0715 49.5404 11.6142 48.1855 9.99639Z" fill="#747881"/>
<path id="Vector_6" d="M55.6692 9.98468C55.8693 9.80748 56.0519 9.61885 56.2637 9.47592C56.3209 9.43588 56.4924 9.48735 56.5607 9.55022C57.11 10.0362 57.7216 10.4134 58.4475 10.5678C59.196 10.7279 59.928 10.6478 60.6253 10.3448C61.3342 10.0362 61.6548 9.4416 61.4943 8.77275C61.4085 8.41259 61.1857 8.16681 60.8717 7.99528C60.3625 7.71519 59.8081 7.64656 59.2422 7.64084C58.602 7.64084 57.9674 7.58369 57.3669 7.33787C56.5496 7.0063 56.0464 6.41175 55.9436 5.52572C55.8292 4.54812 56.1262 3.74779 56.9956 3.19899C58.0702 2.51871 60.3569 2.46154 61.3001 3.33619C61.5916 3.61059 61.8374 3.93644 62.1515 4.28516C61.7747 4.45093 61.4827 4.57673 61.1687 4.71961C60.9344 4.06222 60.4197 3.79924 59.8021 3.70206C58.9617 3.57057 58.1385 3.60487 57.407 4.09651C56.675 4.58813 56.6921 5.73146 57.4296 6.25171C57.853 6.54896 58.3386 6.61187 58.8363 6.65758C59.4594 6.70905 60.0941 6.74332 60.6996 6.89197C61.6262 7.12635 62.312 7.67515 62.4721 8.68701C62.6948 10.1105 61.849 10.9337 60.8255 11.3224C59.0475 11.997 56.9956 11.4939 55.7264 10.0819C55.7148 10.0704 55.7033 10.0419 55.6692 9.98468Z" fill="#747881"/>
<path id="Vector_7" d="M72.9673 3.83097C72.733 3.83097 72.5554 3.83097 72.3728 3.83097C72.2012 3.83097 72.0302 3.83097 71.841 3.83097C71.841 3.47653 71.841 3.13925 71.841 2.76195C72.1957 2.76195 72.5615 2.76195 72.9618 2.76195C72.9618 1.83013 72.9618 0.926899 72.9618 0.0122283C73.3331 0.0122283 73.6707 0.0122283 74.0419 0.0122283C74.0419 0.915461 74.0419 1.81298 74.0419 2.73909C74.6881 2.73909 75.3057 2.73909 75.9459 2.73909C75.9459 3.10495 75.9459 3.45367 75.9459 3.82525C75.3228 3.82525 74.7112 3.82525 74.0535 3.82525C74.0535 3.95102 74.0535 4.05392 74.0535 4.15111C74.0535 6.02618 74.0535 7.90696 74.0535 9.78202C74.0535 10.2908 74.3394 10.5709 74.8482 10.5023C75.1512 10.4566 75.4482 10.3365 75.7397 10.2336C75.8831 10.1822 76.0086 10.0964 76.1576 10.0164C76.3402 10.2793 76.5118 10.5252 76.7119 10.811C76.5574 10.9368 76.42 11.0797 76.2544 11.1769C75.6654 11.5084 75.0368 11.6685 74.3625 11.5485C73.5332 11.4056 72.9733 10.7539 72.9733 9.91352C72.9673 8.00986 72.9733 6.10048 72.9733 4.19684C72.9673 4.08821 72.9673 3.9739 72.9673 3.83097Z" fill="#747881"/>
<path id="Vector_8" d="M8.06986 2.76538C8.41859 2.76538 8.74443 2.76538 9.11603 2.76538C9.11603 3.1141 9.11603 3.46853 9.11603 3.91443C9.93349 3.06836 10.8367 2.59388 11.9515 2.6339C13.1063 2.67392 13.9181 3.24558 14.4097 4.29174C14.6326 4.04591 14.8213 3.81153 15.0442 3.60002C15.9132 2.7711 16.9479 2.46811 18.1197 2.69678C19.1031 2.88543 19.7204 3.53142 19.9891 4.46324C20.155 5.04062 20.2635 5.65805 20.275 6.25827C20.315 7.9447 20.2922 9.63113 20.2922 11.3176C20.2922 11.3633 20.2864 11.409 20.2864 11.4833C19.9377 11.4833 19.5889 11.4833 19.2174 11.4833C19.2174 11.3633 19.2174 11.2489 19.2174 11.1403C19.2174 9.64251 19.2288 8.14477 19.2117 6.65275C19.206 6.18969 19.1716 5.72091 19.0973 5.25785C18.8858 3.97733 18.0226 3.43995 16.7707 3.8001C16.0446 4.0059 15.5244 4.4804 15.1471 5.11497C14.8556 5.60086 14.6841 6.12111 14.6955 6.70989C14.7183 8.18476 14.7012 9.66544 14.7012 11.1403C14.7012 11.2546 14.7012 11.3633 14.7012 11.4948C14.3296 11.4948 13.9924 11.4948 13.6208 11.4948C13.6208 11.3747 13.6208 11.2604 13.6208 11.1517C13.6208 9.62541 13.6322 8.09902 13.615 6.5784C13.6093 6.11539 13.575 5.64084 13.4893 5.18927C13.2721 4.01162 12.5746 3.47997 11.2198 3.8001C10.0821 4.07452 9.12175 5.36075 9.12175 6.53836C9.12175 8.07047 9.12175 9.60825 9.12175 11.1403C9.12175 11.2546 9.12175 11.3633 9.12175 11.4948C8.75587 11.4948 8.41859 11.4948 8.05842 11.4948C8.06986 8.585 8.06986 5.68088 8.06986 2.76538Z" fill="#787A7D"/>
<path id="Vector_9" d="M22.2931 4.84219C22.0702 4.5449 21.8643 4.2705 21.6471 3.97897C22.819 3.15004 24.0138 2.45832 25.5115 2.67556C27.1294 2.90994 28.1927 4.06471 28.2499 5.69396C28.2956 7.12885 28.267 8.56945 28.2727 10.01C28.2727 10.1358 28.2727 10.2559 28.2727 10.3874C28.3642 10.4159 28.4385 10.4445 28.5185 10.4731C28.5185 10.8161 28.5185 11.1477 28.5185 11.4792C27.9297 11.6564 27.4381 11.3821 27.2037 10.736C27.1637 10.7532 27.1237 10.7647 27.0894 10.7875C26.1747 11.4335 25.1514 11.6908 24.0424 11.6679C22.2702 11.6279 20.9268 9.99294 21.287 8.31223C21.4356 7.61478 21.8586 7.11741 22.4589 6.76868C23.2478 6.30567 24.1167 6.13987 25.0142 6.17985C25.7345 6.21422 26.4491 6.31706 27.1694 6.39141C27.4153 4.61352 26.0947 3.33869 24.3282 3.80746C23.7794 3.95609 23.2763 4.27622 22.7562 4.52777C22.5961 4.6078 22.4646 4.72211 22.2931 4.84219ZM27.1866 8.3465C27.1866 8.20356 27.1694 8.06068 27.1923 7.91775C27.2323 7.66049 27.1065 7.57475 26.8778 7.51184C26.1061 7.31181 25.3286 7.21463 24.5341 7.27173C24.0024 7.31181 23.4764 7.41466 23.0077 7.68908C22.556 7.95202 22.2988 8.33506 22.3045 8.87814C22.3217 9.66704 22.8819 10.3473 23.7166 10.5246C24.5111 10.6961 25.2772 10.536 25.9918 10.1987C26.7636 9.83857 27.3466 9.32404 27.1866 8.3465Z" fill="#787A7D"/>
<path id="Vector_10" d="M6.61994 4.33534C6.2826 4.48394 5.95676 4.63259 5.6138 4.78695C5.56805 4.71261 5.52234 4.65547 5.4937 4.58685C5.33366 4.22098 5.0478 3.99231 4.68195 3.87799C3.88734 3.63218 3.08701 3.63218 2.29811 3.92373C1.66356 4.15812 1.36629 4.58685 1.37772 5.18713C1.38915 5.79307 1.72644 6.25613 2.36099 6.43909C2.73829 6.54766 3.14418 6.59341 3.53862 6.61057C4.2189 6.63912 4.88777 6.69059 5.52234 6.96501C6.39699 7.34233 6.94579 7.96543 6.99721 8.95441C7.04863 9.97771 6.58557 10.7094 5.69954 11.1896C4.17316 12.0128 2.06944 11.7784 0.680286 10.6351C0.451618 10.4465 0.245818 10.2406 0 10.012C0.274401 9.77186 0.537369 9.54319 0.806054 9.30885C0.954684 9.44035 1.08617 9.56035 1.22337 9.67474C2.32669 10.5951 3.55578 10.8295 4.91062 10.355C5.42512 10.1721 5.83675 9.85765 5.91105 9.25738C5.97963 8.69143 5.75101 8.27412 5.2422 8.01685C4.71056 7.7482 4.12743 7.70816 3.54434 7.70245C2.92123 7.69673 2.30954 7.6281 1.73216 7.3766C0.846069 6.98789 0.365867 6.30755 0.302984 5.34722C0.2401 4.35819 0.628837 3.58644 1.50349 3.12339C2.64682 2.51171 3.85876 2.4774 5.07072 2.89472C5.78528 3.13482 6.2369 3.68363 6.61994 4.33534Z" fill="#787A7D"/>
<path id="Vector_11" d="M35.6894 3.83097C35.455 3.83097 35.2778 3.83097 35.0948 3.83097C34.9233 3.83097 34.7518 3.83097 34.5632 3.83097C34.5632 3.47653 34.5632 3.13925 34.5632 2.76195C34.9176 2.76195 35.2835 2.76195 35.6837 2.76195C35.6837 1.83013 35.6837 0.926899 35.6837 0.0122283C36.0553 0.0122283 36.3925 0.0122283 36.7641 0.0122283C36.7641 0.915461 36.7641 1.81298 36.7641 2.73909C37.4101 2.73909 38.0275 2.73909 38.6678 2.73909C38.6678 3.10495 38.6678 3.45367 38.6678 3.82525C38.0447 3.82525 37.433 3.82525 36.7755 3.82525C36.7755 3.95102 36.7755 4.05392 36.7755 4.15111C36.7755 6.02618 36.7755 7.90696 36.7755 9.78202C36.7755 10.2908 37.0614 10.5709 37.5702 10.5023C37.8731 10.4566 38.1704 10.3365 38.462 10.2336C38.6049 10.1822 38.7307 10.0964 38.8793 10.0164C39.0622 10.2793 39.2337 10.5252 39.4338 10.811C39.2795 10.9368 39.1423 11.0797 38.9765 11.1769C38.3877 11.5084 37.7588 11.6685 37.0842 11.5485C36.2553 11.4056 35.6951 10.7539 35.6951 9.91352C35.6894 8.00986 35.6951 6.10048 35.6951 4.19684C35.6894 4.08821 35.6894 3.9739 35.6894 3.83097Z" fill="#787A7D"/>
<path id="Vector_12" d="M30.8036 3.85872C31.6954 3.03552 32.7073 2.6868 33.8906 2.76112C33.8906 3.10412 33.8906 3.44141 33.8906 3.80155C33.6449 3.83013 33.3933 3.84157 33.1418 3.88159C31.9584 4.07597 31.1581 4.97348 30.8322 6.0768C30.8036 6.17398 30.8151 6.28259 30.8151 6.39121C30.8151 7.97474 30.8151 9.5525 30.8151 11.1361C30.8151 11.2504 30.8151 11.359 30.8151 11.4962C30.4549 11.4962 30.1176 11.4962 29.7575 11.4962C29.7575 8.59784 29.7575 5.69948 29.7575 2.77827C30.0891 2.77827 30.4263 2.77827 30.8036 2.77827C30.8036 3.12699 30.8036 3.49285 30.8036 3.85872Z" fill="#787A7D"/>
</g>
</svg>
