<svg preserveAspectRatio="none" overflow="visible" style="display: block;" width="32" height="32" viewBox="0 0 32 32" fill="none" xmlns="http://www.w3.org/2000/svg">
<g id="twemoji:flag-jordan">
<path id="Vector" d="M28.4444 4.44531H3.55556C2.61256 4.44531 1.70819 4.81991 1.0414 5.48671C0.374602 6.15351 0 7.05788 0 8.00087L0 12.0009H32V8.00087C32 7.05788 31.6254 6.15351 30.9586 5.48671C30.2918 4.81991 29.3874 4.44531 28.4444 4.44531Z" fill="#141414"/>
<path id="Vector_2" d="M0 24C0 24.943 0.374602 25.8474 1.0414 26.5142C1.70819 27.181 2.61256 27.5556 3.55556 27.5556H28.4444C29.3874 27.5556 30.2918 27.181 30.9586 26.5142C31.6254 25.8474 32 24.943 32 24V20H0V24Z" fill="#007A3D"/>
<path id="Vector_3" d="M0 12H32V20H0V12Z" fill="#EEEEEE"/>
<path id="Vector_4" d="M1.20089 5.33594C0.823529 5.66946 0.52133 6.07935 0.314302 6.53846C0.107275 6.99757 0.000142519 7.49542 0 7.99905L0 23.999C0 25.0595 0.464 26.0115 1.20089 26.663L15.5556 15.999L1.20089 5.33594Z" fill="#CE1126"/>
<path id="Vector_5" d="M5.89058 17.1876L6.82925 18.0552L6.73592 16.7796L7.99992 16.5867L6.94481 15.865L7.58214 14.7565L6.35992 15.1307L5.89058 13.9414L5.42125 15.1307L4.19903 14.7565L4.83547 15.865L3.78125 16.5867L5.04436 16.7796L4.95192 18.0552L5.89058 17.1876Z" fill="white"/>
</g>
</svg>
