<svg preserveAspectRatio="none" overflow="visible" style="display: block;" width="32" height="32" viewBox="0 0 32 32" fill="none" xmlns="http://www.w3.org/2000/svg">
<g id="twemoji:flag-uganda">
<path id="Vector" d="M32 23.9983V23.1094H0V23.9983C0 24.9413 0.374602 25.8456 1.0414 26.5124C1.70819 27.1792 2.61256 27.5538 3.55556 27.5538H28.4444C29.3874 27.5538 30.2918 27.1792 30.9586 26.5124C31.6254 25.8456 32 24.9413 32 23.9983Z" fill="#D90001"/>
<path id="Vector_2" d="M0 19.5547H32V23.1102H0V19.5547Z" fill="#FCDC02"/>
<path id="Vector_3" d="M0 16H32V19.5556H0V16Z" fill="#141414"/>
<path id="Vector_4" d="M0 12.4453H32V16.0009H0V12.4453Z" fill="#D90001"/>
<path id="Vector_5" d="M0 8.89062H32V12.4462H0V8.89062Z" fill="#FCDC02"/>
<path id="Vector_6" d="M0 8.00087V8.88976H32V8.00087C32 7.05788 31.6254 6.15351 30.9586 5.48671C30.2918 4.81991 29.3874 4.44531 28.4444 4.44531H3.55556C2.61256 4.44531 1.70819 4.81991 1.0414 5.48671C0.374602 6.15351 0 7.05788 0 8.00087Z" fill="#141414"/>
<path id="Vector_7" d="M16.0009 19.5564C17.9645 19.5564 19.5564 17.9645 19.5564 16.0009C19.5564 14.0372 17.9645 12.4453 16.0009 12.4453C14.0372 12.4453 12.4453 14.0372 12.4453 16.0009C12.4453 17.9645 14.0372 19.5564 16.0009 19.5564Z" fill="white"/>
<path id="Vector_8" d="M15.417 13.3613L15.1797 12.7364C15.1797 12.7364 15.6944 12.556 16.1948 12.7364C16.5761 12.8742 16.6117 13.3613 16.6117 13.3613L16.0152 13.5418L15.417 13.3613Z" fill="#D90000"/>
<path id="Vector_9" d="M15.6406 13.2656V12.6576C15.6406 12.6576 15.7393 12.6194 16.0166 12.6576C16.294 12.6958 16.4193 12.8905 16.4193 12.8905L16.03 13.3634L15.6406 13.2656Z" fill="#FCDC02"/>
<path id="Vector_10" d="M15.7725 15.0203C15.6987 14.8906 15.7725 14.1315 15.9849 14.0763C16.1974 14.0212 16.6054 13.3546 15.9849 13.1323C15.3645 12.9101 15.2347 13.5581 15.2347 13.5581C15.2347 13.5581 14.6214 13.7386 14.6978 13.8915C14.7716 14.0399 15.2907 13.8363 15.4018 13.9652C15.5129 14.0941 15.3467 14.2799 14.9023 14.799C14.4578 15.3181 14.7538 16.0212 14.9574 16.2026C15.1609 16.3839 15.4018 16.5217 15.5867 16.6879C15.7716 16.8541 15.9849 16.9475 15.9849 16.9475V17.4843C15.9849 17.4843 15.3645 17.5395 15.0685 17.503C14.7725 17.4666 14.5689 17.6701 14.4943 17.9101C14.4196 18.1501 14.6054 18.2808 14.6054 18.0959C14.6054 17.911 14.6791 18.0212 14.696 18.1697C14.7129 18.3181 14.8454 18.2621 14.8454 18.0772C14.8454 17.8923 14.9191 17.9661 14.9378 18.0586C14.9565 18.151 15.0863 18.0212 15.1049 17.9101C15.1236 17.799 15.2898 17.743 15.4383 17.7066C15.5867 17.6701 15.984 17.743 15.984 17.743V18.7243C15.984 18.7243 15.16 18.7795 15.0863 18.8915C15.0125 19.0035 15.5858 18.9839 15.5858 18.9839C15.5858 18.9839 15.4187 19.2986 15.4934 19.3172C15.568 19.3359 16.0863 19.0026 16.2898 18.9652C16.4934 18.9279 16.808 19.0577 16.8454 18.9652C16.8827 18.8728 16.3458 18.743 16.2898 18.6506C16.2338 18.5581 16.1227 17.7066 16.1227 17.7066C16.1227 17.7066 16.3636 17.687 16.6605 17.7057C16.9574 17.7243 16.8827 17.4648 16.6978 17.2061C16.5129 16.9475 16.6791 16.8728 16.9938 16.9288C17.3085 16.9848 17.5494 16.9288 17.5494 16.4283C17.5494 15.9279 15.8463 15.1501 15.7725 15.0203ZM16.4205 17.4275H16.2169L16.2907 17.0568C16.2907 17.0577 16.5503 17.4275 16.4205 17.4275Z" fill="#141414"/>
<path id="Vector_11" d="M15.5324 14.0539C15.5582 13.8326 15.1991 13.8504 15.1804 14.0539C15.1618 14.2575 15.496 14.3695 15.5324 14.0539Z" fill="#D90000"/>
<path id="Vector_12" d="M15.7813 15.1542C15.8836 15.1177 17.0311 15.6404 17.3369 15.779C17.6427 15.9177 17.6062 16.4457 17.5547 16.7648C17.5031 17.0839 17.3227 17.1817 17.3227 17.1817C17.3227 17.1817 17.1227 16.6662 16.4889 16.4182C15.6382 16.0848 15.392 15.2928 15.7813 15.1542Z" fill="#9CA69C"/>
<path id="Vector_13" d="M17.068 15.7617C17.4423 15.8595 18.2343 16.0391 18.3045 16.8453C18.3738 17.6506 17.5498 18.1235 17.5498 18.1235L17.6876 17.8737L17.4432 17.9573L17.5498 17.7759L17.1649 17.8595C17.1649 17.8595 17.8094 17.3457 17.5845 16.8871C17.6014 17.2693 17.3454 17.3733 17.3454 17.3733C17.3454 17.3733 17.5658 16.8435 16.6094 16.2622L16.8592 16.1982L16.6103 15.9982L17.1383 16.1982L16.8876 15.8871L17.3872 16.0817L17.068 15.7617Z" fill="#D90000"/>
<path id="Vector_14" d="M15.6423 13.6336C15.6423 13.6577 15.6327 13.6807 15.6157 13.6977C15.5987 13.7147 15.5757 13.7243 15.5516 13.7243C15.5276 13.7243 15.5045 13.7147 15.4875 13.6977C15.4705 13.6807 15.4609 13.6577 15.4609 13.6336C15.4609 13.6096 15.4705 13.5865 15.4875 13.5695C15.5045 13.5525 15.5276 13.543 15.5516 13.543C15.5757 13.543 15.5987 13.5525 15.6157 13.5695C15.6327 13.5865 15.6423 13.6096 15.6423 13.6336Z" fill="#9CA69C"/>
</g>
</svg>
