<svg preserveAspectRatio="none" overflow="visible" style="display: block;" width="32" height="32" viewBox="0 0 32 32" fill="none" xmlns="http://www.w3.org/2000/svg">
<g id="shape218">
<g id="Vector" filter="url(#filter0_i_0_6)">
<path d="M27.3156 4.68444C24.4178 1.79556 20.4178 0 16 0C7.16444 0 0 7.16444 0 16C0 20.4178 1.79556 24.4178 4.68444 27.3156C7.58222 30.2044 11.5822 32 16 32C20.4178 32 24.4178 30.2044 27.3156 27.3156C30.2044 24.4178 32 20.4178 32 16C32 11.5822 30.2044 7.58222 27.3156 4.68444ZM26.5778 16C26.5778 21.8419 21.8419 26.5778 16 26.5778C10.1581 26.5778 5.42222 21.8419 5.42222 16C5.42222 10.1581 10.1581 5.42222 16 5.42222C21.8419 5.42222 26.5778 10.1581 26.5778 16Z" fill="#BAFA4F"/>
</g>
<path id="Vector_2" d="M19.8055 15.9814C19.8055 18.0881 18.0989 19.7859 16.0011 19.7859C13.9033 19.7859 12.1966 18.0881 12.1966 15.9814C12.1966 13.8747 13.9033 12.177 16.0011 12.177C18.0989 12.177 19.8055 13.8836 19.8055 15.9814Z" fill="#BAFA4F"/>
</g>
<defs>
<filter id="filter0_i_0_6" x="0" y="0" width="32" height="36" filterUnits="userSpaceOnUse" color-interpolation-filters="sRGB">
<feFlood flood-opacity="0" result="BackgroundImageFix"/>
<feBlend mode="normal" in="SourceGraphic" in2="BackgroundImageFix" result="shape"/>
<feColorMatrix in="SourceAlpha" type="matrix" values="0 0 0 0 0 0 0 0 0 0 0 0 0 0 0 0 0 0 127 0" result="hardAlpha"/>
<feOffset dy="4"/>
<feGaussianBlur stdDeviation="2"/>
<feComposite in2="hardAlpha" operator="arithmetic" k2="-1" k3="1"/>
<feColorMatrix type="matrix" values="0 0 0 0 1 0 0 0 0 1 0 0 0 0 1 0 0 0 0.25 0"/>
<feBlend mode="normal" in2="shape" result="effect1_innerShadow_0_6"/>
</filter>
</defs>
</svg>
