<svg preserveAspectRatio="none" overflow="visible" style="display: block;" width="89.467" height="27.9584" viewBox="0 0 89.467 27.9584" fill="none" xmlns="http://www.w3.org/2000/svg">
<g id="Frame 19">
<path id="Vector" d="M3.08317 10.3646C3.53194 10.3646 3.94037 10.3848 4.35385 10.3596C6.73385 10.2333 8.96763 9.59686 11.035 8.39972C11.2014 8.30375 11.3022 8.31385 11.4434 8.44518C12.0989 9.05638 12.7696 9.65747 13.4402 10.2535C13.5965 10.3949 13.6066 10.4707 13.42 10.5869C11.1358 12.0265 8.66508 12.9812 5.98758 13.3449C5.11525 13.461 4.22779 13.461 3.35041 13.5166C3.14368 13.5317 3.07812 13.461 3.07812 13.2489C3.08821 12.3902 3.08317 11.5315 3.08317 10.6728C3.08317 10.597 3.08317 10.5162 3.08317 10.3646Z" fill="#E0E0E0"/>
<path id="Vector_2" d="M22.4398 6.25489C22.1221 6.89134 21.7843 7.50254 21.5069 8.13899C20.6598 10.0584 20.2816 12.084 20.2716 14.1802C20.2716 14.4328 20.1858 14.5136 19.9539 14.5793C19.1723 14.8066 18.4008 15.0743 17.6243 15.3218C17.5134 15.3572 17.4024 15.3875 17.2613 15.4329C17.2411 15.1299 17.2108 14.8571 17.2007 14.5843C17.0646 11.1192 17.9823 7.93189 19.6665 4.93148C19.7673 4.74963 19.853 4.71932 20.0346 4.83045C20.801 5.28506 21.5725 5.72957 22.344 6.17407C22.3793 6.19428 22.4146 6.23469 22.4398 6.25489Z" fill="#E0E0E0"/>
<path id="Vector_3" d="M14.3906 17.552C16.216 15.7892 22.2114 14.0263 24.8334 14.5112C24.8384 14.5819 24.8485 14.6527 24.8485 14.7284C24.8485 15.6023 24.8384 16.4761 24.8435 17.35C24.8435 17.5419 24.783 17.5925 24.5964 17.5925C21.8584 17.5925 19.2767 18.2239 16.8715 19.5473C16.7101 19.6382 16.6244 19.618 16.4933 19.4867C15.8025 18.8401 15.1016 18.2037 14.3906 17.552Z" fill="#E0E0E0"/>
<path id="Vector_4" d="M11.1524 16.1406C11.7222 16.4639 12.297 16.767 12.8416 17.1054C15.383 18.6713 17.3999 20.7423 18.8269 23.374C19.0084 23.7124 18.9984 23.7225 18.6656 23.9094C17.9949 24.2882 17.3293 24.6822 16.6537 25.0611C16.3057 25.2581 16.3108 25.253 16.1141 24.9146C15.025 23.0456 13.6434 21.4393 11.8836 20.1715C11.4802 19.8836 11.0465 19.6462 10.6331 19.3683C10.5625 19.3229 10.4868 19.1966 10.502 19.1208C10.6885 18.1561 10.8902 17.1913 11.0869 16.2265C11.097 16.2214 11.1121 16.2113 11.1524 16.1406Z" fill="#E0E0E0"/>
<path id="Vector_5" d="M8.08752 23.2692C7.19502 22.759 6.33277 22.264 5.44531 21.7589C5.56129 21.5518 5.66718 21.3649 5.76802 21.178C6.87231 19.1928 7.52277 17.0713 7.67405 14.7983C7.69926 14.4447 7.69926 14.0911 7.69926 13.7375C7.69926 13.6264 7.76985 13.5254 7.87574 13.4951C8.67244 13.2425 9.46409 12.9799 10.2557 12.7172C10.3969 12.6717 10.528 12.5909 10.7247 12.5C10.8154 13.2425 10.7953 13.9497 10.76 14.6518C10.6188 17.7381 9.70108 20.592 8.08752 23.2692Z" fill="#E0E0E0"/>
<path id="Vector_6" d="M16.8107 11.8468C16.4174 11.6296 16.0341 11.4326 15.661 11.2104C13.5835 9.97786 11.7733 8.44229 10.3564 6.47232C9.90261 5.84092 9.52947 5.14891 9.116 4.4872C9.00507 4.30536 9.06557 4.21443 9.30761 4.10331C10.0135 3.77498 10.6892 3.38099 11.3195 2.92133C11.5968 2.71928 11.7128 2.75464 11.8439 2.98699C12.4339 4.073 13.1549 5.05293 13.992 5.96215C14.9702 7.02796 16.1047 7.87656 17.3452 8.59383C17.4712 8.6696 17.5166 8.74537 17.4813 8.8969C17.2746 9.83138 17.0729 10.7709 16.8712 11.7104C16.8611 11.7508 16.8409 11.7761 16.8107 11.8468Z" fill="#E0E0E0"/>
<path id="Vector_7" d="M13.398 11.6306L11.9055 12.656C11.6987 12.7974 11.5878 13.0399 11.6029 13.2874L11.7441 15.0957C11.7643 15.3432 11.9156 15.5655 12.1374 15.6715L13.7712 16.4545C13.9981 16.5606 14.2603 16.5404 14.467 16.3989L15.9595 15.3735C16.1663 15.2321 16.2772 14.9896 16.2621 14.7421L16.1209 12.9338C16.1007 12.6863 15.9495 12.464 15.7276 12.358L14.0939 11.575C13.867 11.4689 13.6048 11.4891 13.398 11.6306Z" fill="#E0E0E0"/>
<g id="Framex">
<path id="Vector_8" d="M82.1291 10.9297L84.0923 14.5517L86.0904 10.9297H88.5247L85.593 15.829L88.577 20.7109H86.1602L84.0923 17.1939L82.0593 20.7109H79.625L82.5828 15.829L79.6948 10.9297H82.1291Z" fill="#E0E0E0"/>
<path id="Vector_9" d="M75.402 20.9087C74.4248 20.9087 73.5814 20.7045 72.8717 20.2962C72.1621 19.8821 71.6153 19.2989 71.2314 18.5465C70.8533 17.7941 70.6643 16.9075 70.6643 15.8868C70.6643 14.8778 70.8533 13.9941 71.2314 13.2359C71.6095 12.4718 72.1417 11.8769 72.8281 11.4511C73.5145 11.0254 74.323 10.8125 75.2537 10.8125C75.8528 10.8125 76.42 10.9087 76.9551 11.1012C77.4961 11.2937 77.9731 11.5911 78.3861 11.9936C78.8049 12.396 79.1335 12.9093 79.372 13.5334C79.6105 14.1516 79.7297 14.8894 79.7297 15.7468V16.4642H71.7375V14.9157H78.5867L77.5135 15.3706C77.5135 14.8165 77.4292 14.3354 77.2605 13.9271C77.0918 13.513 76.8417 13.1893 76.5101 12.956C76.1786 12.7226 75.7656 12.606 75.2712 12.606C74.7767 12.606 74.355 12.7226 74.006 12.956C73.657 13.1893 73.3923 13.5042 73.212 13.9008C73.0317 14.2916 72.9415 14.7291 72.9415 15.2132V16.2893C72.9415 16.8842 73.0433 17.3945 73.2469 17.8203C73.4563 18.2403 73.7472 18.561 74.1194 18.7827C74.4975 19.0043 74.9367 19.1151 75.4369 19.1151C75.7627 19.1151 76.0593 19.0685 76.3269 18.9752C76.6003 18.8818 76.833 18.7419 77.0249 18.5552C77.2227 18.3627 77.3739 18.1265 77.4786 17.8466L79.625 18.1003C79.4854 18.666 79.2266 19.1618 78.8485 19.5876C78.4762 20.0075 77.9963 20.3341 77.4088 20.5674C76.8272 20.7949 76.1582 20.9087 75.402 20.9087Z" fill="#E0E0E0"/>
<path id="Vector_10" d="M56.0391 20.7162V10.935H58.2291V12.606H58.3512C58.5548 12.0461 58.8922 11.6086 59.3634 11.2937C59.8345 10.9729 60.3929 10.8125 61.0386 10.8125C61.7017 10.8125 62.2601 10.9729 62.7138 11.2937C63.1675 11.6145 63.4845 12.0519 63.6649 12.606H63.7696C63.9906 12.0636 64.3571 11.6291 64.8689 11.3024C65.3808 10.9758 65.9916 10.8125 66.7012 10.8125C67.597 10.8125 68.327 11.0983 68.8912 11.6699C69.4613 12.2356 69.7463 13.0639 69.7463 14.1546V20.7162H67.4429V14.5045C67.4429 13.9038 67.28 13.4634 66.9543 13.1834C66.6343 12.8976 66.2417 12.7547 65.7764 12.7547C65.2238 12.7547 64.7933 12.9297 64.485 13.2797C64.1767 13.6238 64.0226 14.0671 64.0226 14.6095V20.7162H61.7541V14.417C61.7541 13.9096 61.6057 13.5071 61.3091 13.2097C61.0124 12.9064 60.6198 12.7547 60.1312 12.7547C59.7996 12.7547 59.4971 12.8393 59.2238 13.0085C58.9504 13.1776 58.7322 13.4138 58.5694 13.7171C58.4123 14.0204 58.3338 14.3704 58.3338 14.767V20.7162H56.0391Z" fill="#E0E0E0"/>
<path id="Vector_11" d="M49.5454 20.9174C48.923 20.9174 48.3646 20.8066 47.8701 20.585C47.3757 20.3575 46.986 20.025 46.701 19.5876C46.4159 19.1502 46.2734 18.6106 46.2734 17.9691C46.2734 17.4208 46.3752 16.9659 46.5788 16.6042C46.7824 16.2426 47.0587 15.9539 47.4077 15.7381C47.7625 15.5223 48.161 15.359 48.6031 15.2482C49.0451 15.1315 49.5018 15.0499 49.9729 15.0032C50.5488 14.939 51.0141 14.8836 51.3689 14.837C51.7238 14.7903 51.9797 14.7145 52.1368 14.6095C52.2996 14.5045 52.3811 14.3412 52.3811 14.1196V14.0758C52.3811 13.6034 52.2415 13.2359 51.9623 12.9735C51.683 12.711 51.2759 12.5798 50.7407 12.5798C50.1765 12.5798 49.7286 12.7023 49.3971 12.9472C49.0713 13.1922 48.8503 13.4809 48.7339 13.8134L46.5963 13.5071C46.765 12.9122 47.0442 12.4165 47.4339 12.0198C47.8236 11.6174 48.2977 11.317 48.8561 11.1187C49.4203 10.9146 50.0427 10.8125 50.7233 10.8125C51.1886 10.8125 51.654 10.8679 52.1193 10.9787C52.5846 11.0837 53.0122 11.2645 53.4019 11.5212C53.7916 11.7778 54.1028 12.1219 54.3355 12.5535C54.5682 12.9851 54.6845 13.5246 54.6845 14.1721V20.7162H52.477V19.3689H52.4072C52.2676 19.6372 52.0699 19.8909 51.8139 20.13C51.5638 20.3633 51.2497 20.5529 50.8716 20.6987C50.4993 20.8445 50.0573 20.9174 49.5454 20.9174ZM50.13 19.2201C50.5953 19.2201 50.9967 19.1297 51.334 18.9489C51.6714 18.7623 51.9332 18.5173 52.1193 18.214C52.3054 17.9049 52.3985 17.5695 52.3985 17.2079V16.0618C52.3229 16.1201 52.2007 16.1755 52.0321 16.228C51.8634 16.2747 51.6714 16.3184 51.4562 16.3593C51.241 16.4001 51.0287 16.4351 50.8193 16.4643C50.6157 16.4934 50.4383 16.5167 50.287 16.5342C49.9438 16.5809 49.6355 16.6596 49.3622 16.7705C49.0946 16.8755 48.8823 17.0213 48.7252 17.2079C48.5682 17.3945 48.4896 17.6366 48.4896 17.9341C48.4896 18.3598 48.6438 18.6806 48.9521 18.8964C49.2604 19.1122 49.653 19.2201 50.13 19.2201Z" fill="#E0E0E0"/>
<path id="Vector_12" d="M40.8672 20.7171V10.9359H43.0921V12.5807H43.1968C43.3713 12.0091 43.6767 11.5717 44.113 11.2684C44.5492 10.9593 45.0465 10.8047 45.605 10.8047C45.7271 10.8047 45.8667 10.8105 46.0238 10.8222C46.1866 10.8339 46.3204 10.8484 46.4251 10.8659V12.9832C46.3262 12.9482 46.1721 12.919 45.9627 12.8957C45.7533 12.8723 45.5526 12.8607 45.3607 12.8607C44.936 12.8607 44.5579 12.9511 44.2264 13.1319C43.8948 13.3127 43.6331 13.5606 43.4411 13.8755C43.255 14.1905 43.1619 14.5579 43.1619 14.9779V20.7171H40.8672Z" fill="#E0E0E0"/>
<path id="Vector_13" d="M31.6562 20.7155V7.67969H39.9975V9.65693H34.012V13.5677H39.4129V15.5187H34.012V20.7155H31.6562Z" fill="#E0E0E0"/>
</g>
</g>
</svg>
